PathFileType	4	(X/Y/Z)	D:\TRACE\v60_Jaco2_6-2-23\JustBodyDRS_Motion3_2-platform.trc
DataRate	CameraRate	NumFrames	NumMarkers	Units	OrigDataRate	OrigDataStartFrame	OrigNumFrames
100.00	100.00	      24	5	mm	100.00	2626	      7000
Frame#	Time	Left_Front			Right_Front			Left_Aft			Right_Aft			Post			
		X1	Y1	Z1	X2	Y2	Z2	X3	Y3	Z3	X4	Y4	Z4	X5	Y5	Z5	

2626	26.250	-785.99951	28.21440	-645.63721	784.13525	26.15598	-623.47131	-718.12012	-1.38316	487.07938	696.54913	-6.22415	592.90729	8.88503	1334.02673	-923.92212	
2627	26.260	-786.16364	27.01585	-646.76068	784.48071	25.34913	-623.66864	-717.67957	-0.56093	486.87500	696.58167	-5.57620	592.91791	8.89116	1332.58423	-926.20471	
2628	26.270	-786.05389	26.24474	-646.95923	784.86841	24.07860	-623.93268	-717.39459	-0.00924	486.74127	696.71088	-4.87967	592.39966	9.44586	1330.88599	-928.59064	
2629	26.280	-785.51477	25.34344	-647.27399	785.06775	23.08962	-624.19775	-717.16870	0.48387	486.55936	697.79681	-3.75965	592.42236	10.12974	1329.73962	-930.67236	
2630	26.290	-785.34058	24.35807	-647.44104	785.52301	22.28125	-624.37195	-716.91119	1.49025	486.41003	698.04181	-3.04178	592.01367	10.34866	1328.18201	-932.61469	
2631	26.300	-784.87238	22.95691	-648.10284	785.75659	21.45168	-624.76593	-716.43091	2.15717	486.19806	698.61127	-2.12968	591.67798	10.75204	1326.99939	-934.44543	
2632	26.310	-784.37543	22.33053	-648.11719	786.11816	20.25560	-624.93549	-716.01495	2.75268	485.84308	698.66162	-1.23525	591.15955	10.84718	1325.55884	-936.21057	
2633	26.320	-784.20563	20.93776	-648.29462	786.26563	19.16133	-625.26721	-715.74542	3.17165	485.72488	698.75684	-0.53976	591.59326	10.88628	1323.86401	-938.26050	
2634	26.330	-783.90454	19.88337	-648.18402	786.43536	18.16801	-625.58423	-715.53943	4.01664	485.32556	699.09711	0.16963	591.19537	11.36121	1322.39954	-940.18311	
2635	26.340	-783.74567	19.17723	-648.42053	786.89465	17.22907	-625.84082	-715.10046	4.78089	485.40073	699.30743	1.10982	590.88074	12.08554	1320.74951	-942.14813	
2636	26.350	-783.63251	18.72347	-648.26904	787.38556	16.24097	-625.87189	-714.77606	5.46022	485.07678	700.08331	1.95256	590.51312	12.12731	1319.43750	-944.35803	
2637	26.360	-783.05072	17.16027	-649.06775	787.63025	15.17909	-626.26935	-714.45776	5.94585	484.82446	700.00085	2.84785	590.56366	12.67754	1317.85718	-946.83923	
2638	26.370	-782.80841	15.82996	-649.58490	787.92517	14.38918	-626.24103	-714.34253	6.77989	484.42618	700.20288	3.53617	590.19983	12.65993	1316.61951	-949.40540	
2639	26.380	-781.75574	13.90491	-650.03992	787.95728	13.36486	-626.82178	-714.47058	7.62032	484.10342	700.45563	4.21220	590.09180	13.06481	1315.38904	-952.19189	
2640	26.390	-781.48322	13.57195	-649.64484	788.29596	12.39265	-626.74200	-714.09058	8.19860	484.13785	700.46802	5.08873	589.83051	13.63213	1314.03479	-954.71753	
2641	26.400	-781.86743	12.65856	-650.33252	788.57874	11.34216	-627.44098	-713.68439	8.65489	483.85596	700.83618	5.95089	589.77496	13.66699	1312.53308	-957.05609	
2642	26.410	-781.78119	11.52146	-651.03107	788.71619	10.60997	-627.34576	-713.42767	9.12688	483.65363	700.98273	6.67672	589.45996	13.73190	1311.37659	-959.48657	
2643	26.420	-781.18011	10.84716	-650.24719	788.79395	9.78726	-627.66187	-713.38385	9.90671	483.39798	701.13910	7.20721	589.13806	14.05268	1309.77954	-961.32202	
2644	26.430	-781.72485	10.06863	-651.04205	789.02496	8.73631	-627.75043	-713.17096	10.49167	483.31726	701.41809	8.04558	589.00000	14.18970	1308.68689	-963.28326	
2645	26.440	-781.46783	9.58501	-650.97186	789.17645	7.88523	-627.90973	-712.95337	11.06419	483.15570	701.69409	8.74937	588.74182	14.71626	1307.34094	-964.80103	
2646	26.450	-781.00305	8.54456	-651.19604	789.46753	6.75354	-628.51947	-712.60461	11.41225	483.13129	701.52844	9.44834	588.49219	14.76702	1305.94019	-966.60010	
2647	26.460	-780.88666	7.42599	-651.32489	789.42859	6.22233	-628.30444	-712.48145	12.03280	482.74426	701.89270	10.27821	588.35876	14.81678	1304.67566	-968.00470	
2648	26.470	-780.82092	6.29456	-651.71057	789.73505	5.38921	-628.59058	-712.18091	12.61737	482.67062	701.90729	10.87406	588.18506	14.98740	1303.40405	-969.35815	
2649	26.480	-780.64587	6.07834	-651.58258	789.82733	4.39441	-628.86163	-712.33496	13.35069	482.44095	701.95294	11.57419	588.07745	14.84474	1302.20459	-971.11920	
